HIERARCHY
ROOT Hips
{
	OFFSET -0.001795 -0.223333 0.028219
	CHANNELS 6 Xposition Yposition Zposition Zrotation Yrotation Xrotation 
	JOINT LeftUpLeg
	{
		OFFSET 0.069520 -0.091406 -0.006815
		CHANNELS 3 Zrotation Yrotation Xrotation
		JOINT LeftLeg
		{
			OFFSET 0.034277 -0.375199 -0.004496
			CHANNELS 3 Zrotation Yrotation Xrotation
			JOINT LeftFoot
			{
				OFFSET -0.013596 -0.397961 -0.043693
				CHANNELS 3 Zrotation Yrotation Xrotation
				JOINT LeftToe
				{
					OFFSET 0.026358 -0.055791 0.119288
					CHANNELS 3 Zrotation Yrotation Xrotation
					End Site
					{
						OFFSET 0.000000 0.000000 0.000000
					}
				}
			}
		}
	}
	JOINT RightUpLeg
	{
		OFFSET -0.067670 -0.090522 -0.004320
		CHANNELS 3 Zrotation Yrotation Xrotation
		JOINT RightLeg
		{
			OFFSET -0.038290 -0.382569 -0.008850
			CHANNELS 3 Zrotation Yrotation Xrotation
			JOINT RightFoot
			{
				OFFSET 0.015774 -0.398415 -0.042312
				CHANNELS 3 Zrotation Yrotation Xrotation
				JOINT RightToe
				{
					OFFSET -0.025372 -0.048144 0.123348
					CHANNELS 3 Zrotation Yrotation Xrotation
					End Site
					{
						OFFSET 0.000000 0.000000 0.000000
					}
				}
			}
		}
	}
	JOINT Spine
	{
		OFFSET -0.002533 0.108963 -0.026696
		CHANNELS 3 Zrotation Yrotation Xrotation
		JOINT Spine1
		{
			OFFSET 0.005487 0.135180 0.001092
			CHANNELS 3 Zrotation Yrotation Xrotation
			JOINT Spine2
			{
				OFFSET 0.001457 0.052922 0.025425
				CHANNELS 3 Zrotation Yrotation Xrotation
				JOINT Neck
				{
					OFFSET -0.002778 0.213870 -0.042857
					CHANNELS 3 Zrotation Yrotation Xrotation
					JOINT Head
					{
						OFFSET 0.005152 0.064970 0.051349
						CHANNELS 3 Zrotation Yrotation Xrotation
						End Site
						{
							OFFSET 0.000000 0.000000 0.000000
						}
					}
				}
				JOINT LeftShoulder
				{
					OFFSET 0.078845 0.121749 -0.034090
					CHANNELS 3 Zrotation Yrotation Xrotation
					JOINT LeftArm
					{
						OFFSET 0.090977 0.030469 -0.008868
						CHANNELS 3 Zrotation Yrotation Xrotation
						JOINT LeftForeArm
						{
							OFFSET 0.259612 -0.012772 -0.027456
							CHANNELS 3 Zrotation Yrotation Xrotation
							JOINT LeftHand
							{
								OFFSET 0.249234 0.008986 -0.001171
								CHANNELS 3 Zrotation Yrotation Xrotation
								End Site
								{
									OFFSET 0.000000 0.000000 0.000000
								}
							}
						}
					}
				}
				JOINT RightShoulder
				{
					OFFSET -0.081759 0.118833 -0.038615
					CHANNELS 3 Zrotation Yrotation Xrotation
					JOINT RightArm
					{
						OFFSET -0.096012 0.032551 -0.009143
						CHANNELS 3 Zrotation Yrotation Xrotation
						JOINT RightForeArm
						{
							OFFSET -0.253742 -0.013329 -0.021401
							CHANNELS 3 Zrotation Yrotation Xrotation
							JOINT RightHand
							{
								OFFSET -0.255298 0.007772 -0.005559
								CHANNELS 3 Zrotation Yrotation Xrotation
								End Site
								{
									OFFSET 0.000000 0.000000 0.000000
								}
							}
						}
					}
				}
			}
		}
	}
}
MOTION
Frames: 13
Frame Time: 0.050000
0.005385 0.958768 -0.047704 -1.760239 8.962708 -2.850531 8.648736 -0.231406 2.259435 -2.006925 0.177960 0.314588 -4.782396 -0.547132 15.050472 0.000000 0.000000 0.000000 -7.855872 -0.348206 6.223233 6.688458 -0.830222 -2.299832 -5.273682 -14.310300 16.327144 0.000000 0.000000 0.000000 -1.986671 -0.387460 11.573806 -13.875635 4.698864 -18.189572 -3.358785 22.880906 25.683731 21.492926 -8.656347 -21.747973 0.000000 0.000000 0.000000 -18.361871 -28.790204 5.871072 -49.007263 -26.548403 4.467272 28.628969 -35.787593 -11.105839 0.000000 0.000000 0.000000 20.260156 21.226279 18.346444 70.474122 53.844071 30.315064 -57.376699 85.564129 -37.989322 0.000000 0.000000 0.000000 
0.005402 0.958738 -0.048223 -1.868240 9.268169 -2.531812 8.677158 -0.248411 1.959394 -1.819222 0.164882 0.031217 -4.724588 -0.249054 15.384087 0.000000 0.000000 0.000000 -7.685021 -0.349693 6.084172 6.620960 -0.820211 -2.665315 -5.285949 -14.305026 16.786583 0.000000 0.000000 0.000000 -1.884680 -0.393153 11.447431 -13.551906 4.612246 -18.083860 -3.389964 22.766616 25.885725 21.431736 -8.588609 -21.771513 0.000000 0.000000 0.000000 -18.404173 -28.723862 5.792084 -49.647473 -26.336345 4.438439 29.162729 -37.606784 -11.951449 0.000000 0.000000 0.000000 20.265448 21.029140 18.275811 70.098612 53.512959 29.775290 -59.871287 85.259364 -40.026764 0.000000 0.000000 0.000000 
0.005454 0.958740 -0.048757 -1.914987 9.501546 -2.193994 8.681238 -0.262030 1.703639 -1.693109 0.160822 -0.364859 -4.740373 -0.068238 15.740400 0.000000 0.000000 0.000000 -7.720978 -0.333134 5.796296 6.808303 -0.838448 -3.001381 -5.502067 -14.649676 17.028812 0.000000 0.000000 0.000000 -1.816515 -0.395319 11.346665 -13.298028 4.550611 -17.937157 -3.357131 22.813185 25.895561 21.441020 -8.599872 -21.682600 0.000000 0.000000 0.000000 -18.368871 -28.635237 5.676317 -50.321680 -25.712596 4.253653 29.305878 -39.843035 -12.834556 0.000000 0.000000 0.000000 20.698765 20.545944 18.287963 69.899114 52.912421 29.018443 -56.354317 85.092371 -36.460049 0.000000 0.000000 0.000000 
0.005472 0.958657 -0.049211 -1.941850 9.860549 -1.974525 8.643640 -0.273819 1.574144 -1.512357 0.153119 -0.785863 -4.784848 0.022510 15.957262 0.000000 0.000000 0.000000 -7.524482 -0.336258 5.623335 6.671500 -0.823190 -3.345118 -5.818006 -15.151464 17.581997 0.000000 0.000000 0.000000 -1.772303 -0.401871 11.342376 -13.042534 4.462328 -18.059853 -3.305027 22.888235 26.463205 21.422759 -8.406423 -22.051956 0.000000 0.000000 0.000000 -18.140043 -28.345512 5.456006 -50.879802 -25.257548 4.032025 28.889566 -43.254591 -13.913891 0.000000 0.000000 0.000000 20.574705 20.141064 18.081214 70.306453 52.269552 28.754053 -57.561191 84.505164 -36.964937 0.000000 0.000000 0.000000 
0.005362 0.958553 -0.049624 -1.880535 10.015656 -1.890547 8.625414 -0.278649 1.422113 -1.558819 0.158870 -0.907642 -4.807334 0.067222 16.072676 0.000000 0.000000 0.000000 -7.642864 -0.331233 5.550882 6.794094 -0.838742 -3.367659 -5.945969 -15.349783 17.705418 0.000000 0.000000 0.000000 -1.885330 -0.395154 11.421590 -12.768024 4.418275 -17.759235 -3.234677 23.055377 26.553811 21.532862 -8.355676 -22.309143 0.000000 0.000000 0.000000 -17.862645 -28.180050 5.322198 -51.501658 -25.003718 3.913424 27.645936 -46.121576 -14.411016 0.000000 0.000000 0.000000 20.887567 19.880661 18.156979 69.620362 51.678540 27.739705 -56.189645 83.706418 -35.140010 0.000000 0.000000 0.000000 
0.005140 0.958505 -0.049996 -1.931054 10.244655 -1.730841 8.558783 -0.285065 1.150050 -1.384568 0.146326 -1.010427 -4.733807 0.189618 16.016147 0.000000 0.000000 0.000000 -7.644257 -0.329679 5.464953 7.017165 -0.865106 -3.476367 -6.315253 -15.946228 18.078890 0.000000 0.000000 0.000000 -1.803920 -0.407633 11.484010 -12.721320 4.411904 -17.659476 -3.004118 23.087077 26.876571 21.202771 -7.946194 -22.641114 0.000000 0.000000 0.000000 -17.812129 -28.025414 5.188914 -51.750018 -24.811540 3.826623 25.646706 -48.886720 -14.412080 0.000000 0.000000 0.000000 20.628758 19.650507 17.947361 69.284807 51.069280 27.094471 -52.581968 82.187741 -31.011776 0.000000 0.000000 0.000000 
0.004693 0.958384 -0.050397 -1.823669 10.625299 -1.534862 8.483417 -0.293889 1.007689 -1.300461 0.141686 -1.152451 -4.731143 0.262883 16.042257 0.000000 0.000000 0.000000 -7.763733 -0.328976 5.391161 7.247364 -0.889390 -3.876335 -6.558536 -16.308516 18.279150 0.000000 0.000000 0.000000 -1.986169 -0.395415 11.551934 -12.458029 4.361902 -17.416457 -3.105213 23.108958 26.910481 20.999211 -7.758390 -22.627046 0.000000 0.000000 0.000000 -17.799392 -28.014211 5.094923 -52.062430 -24.582115 3.767084 23.829850 -50.862863 -14.210862 0.000000 0.000000 0.000000 20.742209 19.466422 17.980628 68.127651 50.671517 26.029813 -46.822977 80.375762 -25.209580 0.000000 0.000000 0.000000 
0.003989 0.958324 -0.050875 -1.777766 10.884575 -1.473374 8.435627 -0.299044 0.815806 -1.162669 0.130322 -1.151733 -4.842898 0.207270 16.198090 0.000000 0.000000 0.000000 -7.670065 -0.333964 5.323222 7.372094 -0.903132 -4.103083 -6.794754 -16.669863 18.387230 0.000000 0.000000 0.000000 -1.963724 -0.415362 11.872320 -12.569051 4.397998 -17.367126 -3.090846 23.069022 27.153416 20.779045 -7.586941 -22.615395 0.000000 0.000000 0.000000 -17.450575 -28.103722 5.182807 -52.305720 -24.493742 3.633528 22.364080 -52.521447 -13.976257 0.000000 0.000000 0.000000 20.643629 19.376358 17.902520 66.993989 50.591338 25.306585 -42.465504 77.511628 -20.672223 0.000000 0.000000 0.000000 
0.002892 0.958201 -0.051520 -1.788840 11.041659 -1.305677 8.463560 -0.309427 0.423157 -1.115661 0.122550 -1.000341 -4.855563 0.181858 16.139737 0.000000 0.000000 0.000000 -7.607486 -0.331844 5.239434 7.551205 -0.923258 -4.185024 -6.928453 -16.873863 18.284259 0.000000 0.000000 0.000000 -2.160933 -0.415120 12.271756 -12.595457 4.416975 -17.242927 -3.149962 23.024327 26.964551 20.827952 -7.709987 -22.388426 0.000000 0.000000 0.000000 -17.327380 -28.267554 5.287030 -52.296179 -24.723742 3.712316 21.499222 -52.862755 -13.611982 0.000000 0.000000 0.000000 21.234999 19.440216 18.249338 65.357343 51.273564 24.701927 -38.196718 73.532168 -16.440708 0.000000 0.000000 0.000000 
0.001422 0.957979 -0.052245 -1.888192 11.358851 -1.175245 8.604986 -0.327652 0.216605 -0.970891 0.113116 -1.105459 -5.023144 -0.037274 16.121161 0.000000 0.000000 0.000000 -7.383709 -0.340842 5.194035 7.544474 -0.924329 -4.381038 -7.119839 -17.147143 18.457794 0.000000 0.000000 0.000000 -2.116592 -0.441063 12.627405 -12.598825 4.409306 -17.309550 -3.063776 22.889750 27.168021 20.529546 -7.510029 -22.309375 0.000000 0.000000 0.000000 -17.629759 -28.734134 5.472832 -52.171136 -24.830485 3.805288 20.713172 -52.982172 -13.186796 0.000000 0.000000 0.000000 21.275071 19.682363 18.428616 64.406598 51.877634 24.582629 -36.218435 70.176787 -14.396434 0.000000 0.000000 0.000000 
-0.000189 0.957883 -0.052829 -1.929570 11.427327 -1.100884 8.723391 -0.337391 0.057104 -0.889033 0.101915 -0.924964 -5.124629 -0.179218 16.129576 0.000000 0.000000 0.000000 -7.218892 -0.347179 5.223188 7.516885 -0.912980 -4.841712 -7.213960 -17.288168 18.649725 0.000000 0.000000 0.000000 -2.232763 -0.444173 12.934166 -12.562403 4.408661 -17.218769 -3.167315 22.712371 26.978617 20.420392 -7.669477 -21.736518 0.000000 0.000000 0.000000 -17.684746 -28.837408 5.571377 -51.898895 -25.052663 3.900782 20.390412 -52.876399 -12.928973 0.000000 0.000000 0.000000 21.925703 19.652517 18.714129 63.828753 52.091331 24.215871 -34.668312 68.714050 -13.101385 0.000000 0.000000 0.000000 
-0.001723 0.957807 -0.053160 -1.933417 11.548748 -1.134152 8.705450 -0.337835 0.118966 -0.833323 0.098464 -0.966271 -5.253214 -0.416946 16.015137 0.000000 0.000000 0.000000 -7.146641 -0.357320 5.300363 7.663329 -0.922235 -5.233053 -7.249922 -17.336996 18.673290 0.000000 0.000000 0.000000 -2.140489 -0.471650 13.231627 -12.434918 4.362427 -17.349558 -3.065776 22.583933 27.231883 20.219976 -7.652218 -21.439029 0.000000 0.000000 0.000000 -18.055143 -29.366088 5.833505 -51.248324 -24.823510 3.832443 20.467613 -53.075742 -12.962798 0.000000 0.000000 0.000000 22.582492 19.637240 19.015376 63.047455 51.761336 23.292847 -32.567691 68.957043 -11.770401 0.000000 0.000000 0.000000 
-0.003126 0.957764 -0.053324 -1.856953 11.347207 -1.064144 8.795557 -0.338465 0.221810 -0.989652 0.113813 -1.075794 -5.282182 -0.438900 16.131125 0.000000 0.000000 0.000000 -7.307395 -0.340259 5.194038 7.873197 -0.933740 -5.445482 -7.325040 -17.486210 18.710315 0.000000 0.000000 0.000000 -2.118562 -0.480008 13.421696 -12.526577 4.386054 -17.346848 -3.088434 22.251543 27.182183 20.024547 -7.644153 -21.250232 0.000000 0.000000 0.000000 -17.971805 -29.396476 6.023449 -50.775729 -25.073208 3.859612 21.200842 -52.526203 -13.058860 0.000000 0.000000 0.000000 23.142965 19.631049 19.171110 63.363051 51.007555 22.726596 -31.535397 71.809210 -11.443667 0.000000 0.000000 0.000000 
